<mxfile host="app.diagrams.net" modified="2023-10-11T17:31:47.574Z" agent="Mozilla/5.0 (Macintosh; Intel Mac OS X 10_15_7) AppleWebKit/605.1.15 (KHTML, like Gecko) Version/15.5 Safari/605.1.15" etag="AIe5VTaECUyaI8-MK-uB" version="22.0.4" type="github">
  <diagram name="Page-1" id="MS3F0-jO2fXdgPo8Lo6S">
    <mxGraphModel dx="1434" dy="827" grid="1" gridSize="10" guides="1" tooltips="1" connect="1" arrows="1" fold="1" page="1" pageScale="1" pageWidth="850" pageHeight="1100" math="0" shadow="0">
      <root>
        <mxCell id="0" />
        <mxCell id="1" parent="0" />
        <mxCell id="3IenMItIxv0-lteJ33fJ-1" value="" style="rounded=0;whiteSpace=wrap;html=1;" parent="1" vertex="1">
          <mxGeometry x="390" y="220" width="120" height="60" as="geometry" />
        </mxCell>
        <mxCell id="3IenMItIxv0-lteJ33fJ-2" value="Utente" style="text;html=1;strokeColor=none;fillColor=none;align=center;verticalAlign=middle;whiteSpace=wrap;rounded=0;" parent="1" vertex="1">
          <mxGeometry x="425" y="235" width="60" height="30" as="geometry" />
        </mxCell>
        <mxCell id="3IenMItIxv0-lteJ33fJ-3" value="" style="shape=flexArrow;endArrow=classic;html=1;width=23.529411764705884;endSize=7.317647058823529;fillColor=#000000;strokeColor=#000000;" parent="1" edge="1">
          <mxGeometry width="50" height="50" relative="1" as="geometry">
            <mxPoint x="455" y="330" as="sourcePoint" />
            <mxPoint x="454.5" y="280" as="targetPoint" />
            <Array as="points">
              <mxPoint x="454.5" y="310" />
            </Array>
          </mxGeometry>
        </mxCell>
        <mxCell id="3IenMItIxv0-lteJ33fJ-4" value="Spettatore" style="rounded=0;whiteSpace=wrap;html=1;" parent="1" vertex="1">
          <mxGeometry x="505" y="435" width="105" height="55" as="geometry" />
        </mxCell>
        <mxCell id="3IenMItIxv0-lteJ33fJ-5" value="Streamer-Spettatore" style="rounded=0;whiteSpace=wrap;html=1;" parent="1" vertex="1">
          <mxGeometry x="340" y="440" width="100" height="55" as="geometry" />
        </mxCell>
        <mxCell id="3IenMItIxv0-lteJ33fJ-6" value="Streamer" style="rounded=0;whiteSpace=wrap;html=1;" parent="1" vertex="1">
          <mxGeometry x="220" y="440" width="100" height="55" as="geometry" />
        </mxCell>
        <mxCell id="3IenMItIxv0-lteJ33fJ-12" value="Canale&lt;br&gt;" style="rounded=0;whiteSpace=wrap;html=1;" parent="1" vertex="1">
          <mxGeometry x="260" y="820" width="120" height="60" as="geometry" />
        </mxCell>
        <mxCell id="3IenMItIxv0-lteJ33fJ-15" value="" style="endArrow=none;html=1;strokeColor=#080808;strokeWidth=1;entryX=0.45;entryY=1;entryDx=0;entryDy=0;entryPerimeter=0;exitX=0;exitY=0;exitDx=0;exitDy=0;" parent="1" source="3IenMItIxv0-lteJ33fJ-12" target="aLuPOI9P567OgMAXJeuT-25" edge="1">
          <mxGeometry width="50" height="50" relative="1" as="geometry">
            <mxPoint x="260" y="810" as="sourcePoint" />
            <mxPoint x="190" y="660" as="targetPoint" />
            <Array as="points" />
          </mxGeometry>
        </mxCell>
        <mxCell id="3IenMItIxv0-lteJ33fJ-17" value="" style="endArrow=none;html=1;" parent="1" edge="1">
          <mxGeometry width="50" height="50" relative="1" as="geometry">
            <mxPoint x="270" y="940" as="sourcePoint" />
            <mxPoint x="270" y="940" as="targetPoint" />
          </mxGeometry>
        </mxCell>
        <mxCell id="3IenMItIxv0-lteJ33fJ-22" value="" style="ellipse;whiteSpace=wrap;html=1;aspect=fixed;fillColor=none;strokeColor=#000000;" parent="1" vertex="1">
          <mxGeometry x="810" y="340" width="20" height="20" as="geometry" />
        </mxCell>
        <mxCell id="3IenMItIxv0-lteJ33fJ-24" value="" style="endArrow=none;html=1;fontColor=default;labelBackgroundColor=default;strokeColor=#121212;strokeWidth=1;" parent="1" edge="1">
          <mxGeometry width="50" height="50" relative="1" as="geometry">
            <mxPoint x="280" y="950" as="sourcePoint" />
            <mxPoint x="280" y="880" as="targetPoint" />
            <Array as="points" />
          </mxGeometry>
        </mxCell>
        <mxCell id="3IenMItIxv0-lteJ33fJ-25" value="" style="endArrow=none;html=1;fontColor=default;labelBackgroundColor=default;strokeColor=#121212;strokeWidth=1;" parent="1" edge="1">
          <mxGeometry width="50" height="50" relative="1" as="geometry">
            <mxPoint x="350" y="950" as="sourcePoint" />
            <mxPoint x="350" y="880" as="targetPoint" />
            <Array as="points" />
          </mxGeometry>
        </mxCell>
        <mxCell id="3IenMItIxv0-lteJ33fJ-26" value="&lt;font color=&quot;#1a1a1a&quot;&gt;Nome&lt;br&gt;&lt;br&gt;&lt;/font&gt;" style="text;html=1;strokeColor=none;fillColor=none;align=left;verticalAlign=middle;whiteSpace=wrap;rounded=0;" parent="1" vertex="1">
          <mxGeometry x="250" y="970" width="60" height="30" as="geometry" />
        </mxCell>
        <mxCell id="3IenMItIxv0-lteJ33fJ-27" value="&lt;font color=&quot;#000000&quot;&gt;Descrizione&lt;/font&gt;" style="text;html=1;strokeColor=none;fillColor=none;align=left;verticalAlign=middle;whiteSpace=wrap;rounded=0;" parent="1" vertex="1">
          <mxGeometry x="330" y="960" width="60" height="30" as="geometry" />
        </mxCell>
        <mxCell id="3IenMItIxv0-lteJ33fJ-28" value="" style="ellipse;whiteSpace=wrap;html=1;aspect=fixed;fillColor=#000000;strokeColor=#000000;" parent="1" vertex="1">
          <mxGeometry x="270" y="950" width="20" height="20" as="geometry" />
        </mxCell>
        <mxCell id="3IenMItIxv0-lteJ33fJ-29" value="" style="endArrow=none;html=1;fontColor=default;labelBackgroundColor=default;strokeColor=#121212;strokeWidth=1;" parent="1" edge="1">
          <mxGeometry width="50" height="50" relative="1" as="geometry">
            <mxPoint x="470" y="857" as="sourcePoint" />
            <mxPoint x="380" y="857" as="targetPoint" />
            <Array as="points" />
          </mxGeometry>
        </mxCell>
        <mxCell id="3IenMItIxv0-lteJ33fJ-30" value="" style="rhombus;whiteSpace=wrap;html=1;" parent="1" vertex="1">
          <mxGeometry x="460" y="820" width="80" height="80" as="geometry" />
        </mxCell>
        <mxCell id="3IenMItIxv0-lteJ33fJ-31" value="Contenuto" style="text;html=1;strokeColor=none;fillColor=none;align=center;verticalAlign=middle;whiteSpace=wrap;rounded=0;" parent="1" vertex="1">
          <mxGeometry x="470" y="845" width="60" height="30" as="geometry" />
        </mxCell>
        <mxCell id="3IenMItIxv0-lteJ33fJ-32" value="" style="endArrow=none;html=1;fontColor=default;labelBackgroundColor=default;strokeColor=#121212;strokeWidth=1;entryX=0.5;entryY=1;entryDx=0;entryDy=0;" parent="1" target="3IenMItIxv0-lteJ33fJ-33" edge="1">
          <mxGeometry width="50" height="50" relative="1" as="geometry">
            <mxPoint x="480" y="840" as="sourcePoint" />
            <mxPoint x="480" y="800" as="targetPoint" />
            <Array as="points" />
          </mxGeometry>
        </mxCell>
        <mxCell id="3IenMItIxv0-lteJ33fJ-33" value="" style="ellipse;whiteSpace=wrap;html=1;aspect=fixed;fillColor=none;strokeColor=#000000;" parent="1" vertex="1">
          <mxGeometry x="470" y="785" width="20" height="20" as="geometry" />
        </mxCell>
        <mxCell id="3IenMItIxv0-lteJ33fJ-34" value="&lt;font color=&quot;#000000&quot;&gt;Data&lt;br&gt;&lt;br&gt;&lt;/font&gt;" style="text;html=1;strokeColor=none;fillColor=none;align=left;verticalAlign=middle;whiteSpace=wrap;rounded=0;" parent="1" vertex="1">
          <mxGeometry x="460" y="770" width="60" height="30" as="geometry" />
        </mxCell>
        <mxCell id="3IenMItIxv0-lteJ33fJ-35" value="" style="endArrow=none;html=1;strokeColor=#030303;strokeWidth=1;" parent="1" edge="1">
          <mxGeometry width="50" height="50" relative="1" as="geometry">
            <mxPoint x="690" y="590" as="sourcePoint" />
            <mxPoint x="630" y="590" as="targetPoint" />
            <Array as="points" />
          </mxGeometry>
        </mxCell>
        <mxCell id="3IenMItIxv0-lteJ33fJ-36" value="" style="rhombus;whiteSpace=wrap;html=1;" parent="1" vertex="1">
          <mxGeometry x="680" y="550" width="80" height="80" as="geometry" />
        </mxCell>
        <mxCell id="3IenMItIxv0-lteJ33fJ-37" value="Live" style="text;html=1;strokeColor=none;fillColor=none;align=center;verticalAlign=middle;whiteSpace=wrap;rounded=0;" parent="1" vertex="1">
          <mxGeometry x="690" y="575" width="60" height="30" as="geometry" />
        </mxCell>
        <mxCell id="3IenMItIxv0-lteJ33fJ-38" value="" style="endArrow=none;html=1;strokeColor=#030303;strokeWidth=1;" parent="1" edge="1">
          <mxGeometry width="50" height="50" relative="1" as="geometry">
            <mxPoint x="800" y="590" as="sourcePoint" />
            <mxPoint x="760" y="590" as="targetPoint" />
            <Array as="points" />
          </mxGeometry>
        </mxCell>
        <mxCell id="3IenMItIxv0-lteJ33fJ-39" value="Contenuto&amp;nbsp;" style="rounded=0;whiteSpace=wrap;html=1;" parent="1" vertex="1">
          <mxGeometry x="800" y="560" width="120" height="60" as="geometry" />
        </mxCell>
        <mxCell id="3IenMItIxv0-lteJ33fJ-41" value="" style="endArrow=none;html=1;fontColor=default;labelBackgroundColor=default;strokeColor=#121212;strokeWidth=2;" parent="1" source="3IenMItIxv0-lteJ33fJ-46" edge="1">
          <mxGeometry width="50" height="50" relative="1" as="geometry">
            <mxPoint x="820" y="560" as="sourcePoint" />
            <mxPoint x="820" y="500" as="targetPoint" />
            <Array as="points" />
          </mxGeometry>
        </mxCell>
        <mxCell id="3IenMItIxv0-lteJ33fJ-42" value="" style="endArrow=none;html=1;fontColor=default;labelBackgroundColor=default;strokeColor=#121212;strokeWidth=1;exitX=0.75;exitY=0;exitDx=0;exitDy=0;" parent="1" source="3IenMItIxv0-lteJ33fJ-39" edge="1">
          <mxGeometry width="50" height="50" relative="1" as="geometry">
            <mxPoint x="840" y="580" as="sourcePoint" />
            <mxPoint x="890" y="510" as="targetPoint" />
            <Array as="points" />
          </mxGeometry>
        </mxCell>
        <mxCell id="3IenMItIxv0-lteJ33fJ-43" value="&lt;font color=&quot;#000000&quot;&gt;N minuti&lt;br&gt;trasmessi&lt;br&gt;&lt;/font&gt;" style="text;html=1;strokeColor=none;fillColor=none;align=left;verticalAlign=middle;whiteSpace=wrap;rounded=0;" parent="1" vertex="1">
          <mxGeometry x="780" y="465" width="60" height="30" as="geometry" />
        </mxCell>
        <mxCell id="3IenMItIxv0-lteJ33fJ-44" value="&lt;font color=&quot;#000000&quot;&gt;N medio&lt;br&gt;spettatori&lt;br&gt;&lt;/font&gt;" style="text;html=1;strokeColor=none;fillColor=none;align=left;verticalAlign=middle;whiteSpace=wrap;rounded=0;" parent="1" vertex="1">
          <mxGeometry x="870" y="465" width="60" height="30" as="geometry" />
        </mxCell>
        <mxCell id="3IenMItIxv0-lteJ33fJ-45" value="" style="endArrow=none;html=1;fontColor=default;labelBackgroundColor=default;strokeColor=#121212;strokeWidth=1;" parent="1" target="3IenMItIxv0-lteJ33fJ-46" edge="1">
          <mxGeometry width="50" height="50" relative="1" as="geometry">
            <mxPoint x="820" y="560" as="sourcePoint" />
            <mxPoint x="820" y="500" as="targetPoint" />
            <Array as="points">
              <mxPoint x="820" y="530" />
            </Array>
          </mxGeometry>
        </mxCell>
        <mxCell id="3IenMItIxv0-lteJ33fJ-46" value="" style="ellipse;whiteSpace=wrap;html=1;aspect=fixed;fillColor=none;strokeColor=#000000;" parent="1" vertex="1">
          <mxGeometry x="810" y="490" width="20" height="20" as="geometry" />
        </mxCell>
        <mxCell id="3IenMItIxv0-lteJ33fJ-47" value="" style="ellipse;whiteSpace=wrap;html=1;aspect=fixed;fillColor=none;strokeColor=#000000;" parent="1" vertex="1">
          <mxGeometry x="880" y="495" width="20" height="20" as="geometry" />
        </mxCell>
        <mxCell id="3IenMItIxv0-lteJ33fJ-48" value="" style="ellipse;whiteSpace=wrap;html=1;aspect=fixed;fillColor=none;strokeColor=#000000;" parent="1" vertex="1">
          <mxGeometry x="340" y="950" width="20" height="20" as="geometry" />
        </mxCell>
        <mxCell id="3IenMItIxv0-lteJ33fJ-49" value="" style="endArrow=none;html=1;fontColor=default;labelBackgroundColor=default;strokeColor=#121212;strokeWidth=1;entryX=1.017;entryY=0.617;entryDx=0;entryDy=0;entryPerimeter=0;" parent="1" edge="1">
          <mxGeometry width="50" height="50" relative="1" as="geometry">
            <mxPoint x="640" y="860" as="sourcePoint" />
            <mxPoint x="540" y="859.5" as="targetPoint" />
            <Array as="points" />
          </mxGeometry>
        </mxCell>
        <mxCell id="3IenMItIxv0-lteJ33fJ-50" value="" style="endArrow=none;html=1;fontColor=default;labelBackgroundColor=default;strokeColor=#121212;strokeWidth=1;" parent="1" edge="1">
          <mxGeometry width="50" height="50" relative="1" as="geometry">
            <mxPoint x="590" y="760" as="sourcePoint" />
            <mxPoint x="590" y="1000" as="targetPoint" />
            <Array as="points" />
          </mxGeometry>
        </mxCell>
        <mxCell id="3IenMItIxv0-lteJ33fJ-51" value="" style="endArrow=none;html=1;fontColor=default;labelBackgroundColor=default;strokeColor=#121212;strokeWidth=1;" parent="1" edge="1">
          <mxGeometry width="50" height="50" relative="1" as="geometry">
            <mxPoint x="590" y="760" as="sourcePoint" />
            <mxPoint x="630" y="760" as="targetPoint" />
            <Array as="points">
              <mxPoint x="630" y="760" />
              <mxPoint x="640" y="760" />
            </Array>
          </mxGeometry>
        </mxCell>
        <mxCell id="3IenMItIxv0-lteJ33fJ-52" value="Live" style="rounded=0;whiteSpace=wrap;html=1;" parent="1" vertex="1">
          <mxGeometry x="635" y="740" width="80" height="40" as="geometry" />
        </mxCell>
        <mxCell id="3IenMItIxv0-lteJ33fJ-53" value="" style="endArrow=none;html=1;rounded=0;entryX=0.027;entryY=0.627;entryDx=0;entryDy=0;entryPerimeter=0;strokeColor=#000000;" parent="1" target="3IenMItIxv0-lteJ33fJ-79" edge="1">
          <mxGeometry width="50" height="50" relative="1" as="geometry">
            <mxPoint x="590" y="1000" as="sourcePoint" />
            <mxPoint x="635" y="1000" as="targetPoint" />
            <Array as="points">
              <mxPoint x="615" y="1000" />
            </Array>
          </mxGeometry>
        </mxCell>
        <mxCell id="3IenMItIxv0-lteJ33fJ-54" value="" style="endArrow=none;html=1;fontColor=default;labelBackgroundColor=default;strokeColor=#121212;strokeWidth=1;" parent="1" edge="1">
          <mxGeometry width="50" height="50" relative="1" as="geometry">
            <mxPoint x="645" y="740" as="sourcePoint" />
            <mxPoint x="645" y="720" as="targetPoint" />
            <Array as="points" />
          </mxGeometry>
        </mxCell>
        <mxCell id="3IenMItIxv0-lteJ33fJ-55" value="" style="endArrow=none;html=1;fontColor=default;labelBackgroundColor=default;strokeColor=#121212;strokeWidth=1;" parent="1" edge="1">
          <mxGeometry width="50" height="50" relative="1" as="geometry">
            <mxPoint x="674.83" y="740" as="sourcePoint" />
            <mxPoint x="674.83" y="720" as="targetPoint" />
            <Array as="points" />
          </mxGeometry>
        </mxCell>
        <mxCell id="3IenMItIxv0-lteJ33fJ-56" value="" style="ellipse;whiteSpace=wrap;html=1;aspect=fixed;fillColor=none;strokeColor=#000000;" parent="1" vertex="1">
          <mxGeometry x="635" y="700" width="20" height="20" as="geometry" />
        </mxCell>
        <mxCell id="3IenMItIxv0-lteJ33fJ-57" value="" style="ellipse;whiteSpace=wrap;html=1;aspect=fixed;fillColor=none;strokeColor=#000000;" parent="1" vertex="1">
          <mxGeometry x="665" y="700" width="20" height="20" as="geometry" />
        </mxCell>
        <mxCell id="3IenMItIxv0-lteJ33fJ-58" value="&lt;font color=&quot;#000000&quot;&gt;Titolo&lt;br&gt;&lt;/font&gt;" style="text;html=1;strokeColor=none;fillColor=none;align=left;verticalAlign=middle;whiteSpace=wrap;rounded=0;" parent="1" vertex="1">
          <mxGeometry x="625" y="680" width="30" height="20" as="geometry" />
        </mxCell>
        <mxCell id="3IenMItIxv0-lteJ33fJ-59" value="&lt;font color=&quot;#000000&quot;&gt;Durata&lt;br&gt;&lt;br&gt;&lt;/font&gt;" style="text;html=1;strokeColor=none;fillColor=none;align=left;verticalAlign=middle;whiteSpace=wrap;rounded=0;" parent="1" vertex="1">
          <mxGeometry x="655" y="700" width="30" as="geometry" />
        </mxCell>
        <mxCell id="3IenMItIxv0-lteJ33fJ-60" value="" style="endArrow=none;html=1;fontColor=default;labelBackgroundColor=default;strokeColor=#121212;strokeWidth=1;" parent="1" edge="1">
          <mxGeometry width="50" height="50" relative="1" as="geometry">
            <mxPoint x="705" y="740" as="sourcePoint" />
            <mxPoint x="705" y="720" as="targetPoint" />
            <Array as="points" />
          </mxGeometry>
        </mxCell>
        <mxCell id="3IenMItIxv0-lteJ33fJ-61" value="" style="ellipse;whiteSpace=wrap;html=1;aspect=fixed;fillColor=none;strokeColor=#000000;" parent="1" vertex="1">
          <mxGeometry x="695" y="700" width="20" height="20" as="geometry" />
        </mxCell>
        <mxCell id="3IenMItIxv0-lteJ33fJ-62" value="&lt;font color=&quot;#000000&quot;&gt;Tag&lt;br&gt;&lt;br&gt;&lt;/font&gt;" style="text;html=1;strokeColor=none;fillColor=none;align=left;verticalAlign=middle;whiteSpace=wrap;rounded=0;" parent="1" vertex="1">
          <mxGeometry x="695" y="700" width="10" as="geometry" />
        </mxCell>
        <mxCell id="3IenMItIxv0-lteJ33fJ-63" value="" style="ellipse;whiteSpace=wrap;html=1;aspect=fixed;fillColor=default;strokeColor=#000000;" parent="1" vertex="1">
          <mxGeometry x="735" y="740" width="20" height="20" as="geometry" />
        </mxCell>
        <mxCell id="3IenMItIxv0-lteJ33fJ-64" value="" style="endArrow=none;html=1;fontColor=default;labelBackgroundColor=default;strokeColor=#121212;strokeWidth=1;exitX=0;exitY=0.5;exitDx=0;exitDy=0;entryX=1;entryY=0.25;entryDx=0;entryDy=0;" parent="1" source="3IenMItIxv0-lteJ33fJ-63" target="3IenMItIxv0-lteJ33fJ-52" edge="1">
          <mxGeometry width="50" height="50" relative="1" as="geometry">
            <mxPoint x="724.83" y="755" as="sourcePoint" />
            <mxPoint x="724.83" y="735" as="targetPoint" />
            <Array as="points" />
          </mxGeometry>
        </mxCell>
        <mxCell id="3IenMItIxv0-lteJ33fJ-65" value="&lt;font color=&quot;#000000&quot;&gt;Categoria&lt;br&gt;&lt;br&gt;&lt;/font&gt;" style="text;html=1;strokeColor=none;fillColor=none;align=left;verticalAlign=middle;whiteSpace=wrap;rounded=0;" parent="1" vertex="1">
          <mxGeometry x="755" y="750" width="10" as="geometry" />
        </mxCell>
        <mxCell id="3IenMItIxv0-lteJ33fJ-66" value="Video" style="rounded=0;whiteSpace=wrap;html=1;" parent="1" vertex="1">
          <mxGeometry x="640" y="840" width="80" height="40" as="geometry" />
        </mxCell>
        <mxCell id="3IenMItIxv0-lteJ33fJ-67" value="" style="endArrow=none;html=1;fontColor=default;labelBackgroundColor=default;strokeColor=#121212;strokeWidth=1;" parent="1" edge="1">
          <mxGeometry width="50" height="50" relative="1" as="geometry">
            <mxPoint x="650" y="840" as="sourcePoint" />
            <mxPoint x="650" y="820" as="targetPoint" />
            <Array as="points" />
          </mxGeometry>
        </mxCell>
        <mxCell id="3IenMItIxv0-lteJ33fJ-68" value="" style="endArrow=none;html=1;fontColor=default;labelBackgroundColor=default;strokeColor=#121212;strokeWidth=1;" parent="1" edge="1">
          <mxGeometry width="50" height="50" relative="1" as="geometry">
            <mxPoint x="679.83" y="840" as="sourcePoint" />
            <mxPoint x="679.83" y="820" as="targetPoint" />
            <Array as="points" />
          </mxGeometry>
        </mxCell>
        <mxCell id="3IenMItIxv0-lteJ33fJ-69" value="" style="ellipse;whiteSpace=wrap;html=1;aspect=fixed;fillColor=none;strokeColor=#000000;" parent="1" vertex="1">
          <mxGeometry x="640" y="800" width="20" height="20" as="geometry" />
        </mxCell>
        <mxCell id="3IenMItIxv0-lteJ33fJ-70" value="" style="ellipse;whiteSpace=wrap;html=1;aspect=fixed;fillColor=none;strokeColor=#000000;" parent="1" vertex="1">
          <mxGeometry x="670" y="800" width="20" height="20" as="geometry" />
        </mxCell>
        <mxCell id="3IenMItIxv0-lteJ33fJ-71" value="&lt;font color=&quot;#000000&quot;&gt;Titolo&lt;br&gt;&lt;/font&gt;" style="text;html=1;strokeColor=none;fillColor=none;align=left;verticalAlign=middle;whiteSpace=wrap;rounded=0;" parent="1" vertex="1">
          <mxGeometry x="630" y="785" width="30" height="20" as="geometry" />
        </mxCell>
        <mxCell id="3IenMItIxv0-lteJ33fJ-72" value="&lt;font color=&quot;#000000&quot;&gt;Durata&lt;br&gt;&lt;br&gt;&lt;/font&gt;" style="text;html=1;strokeColor=none;fillColor=none;align=left;verticalAlign=middle;whiteSpace=wrap;rounded=0;" parent="1" vertex="1">
          <mxGeometry x="660" y="800" width="30" as="geometry" />
        </mxCell>
        <mxCell id="3IenMItIxv0-lteJ33fJ-73" value="" style="endArrow=none;html=1;fontColor=default;labelBackgroundColor=default;strokeColor=#121212;strokeWidth=1;" parent="1" edge="1">
          <mxGeometry width="50" height="50" relative="1" as="geometry">
            <mxPoint x="710" y="840" as="sourcePoint" />
            <mxPoint x="710" y="820" as="targetPoint" />
            <Array as="points" />
          </mxGeometry>
        </mxCell>
        <mxCell id="3IenMItIxv0-lteJ33fJ-74" value="" style="ellipse;whiteSpace=wrap;html=1;aspect=fixed;fillColor=none;strokeColor=#000000;" parent="1" vertex="1">
          <mxGeometry x="700" y="800" width="20" height="20" as="geometry" />
        </mxCell>
        <mxCell id="3IenMItIxv0-lteJ33fJ-75" value="&lt;font color=&quot;#000000&quot;&gt;Tag&lt;br&gt;&lt;br&gt;&lt;/font&gt;" style="text;html=1;strokeColor=none;fillColor=none;align=left;verticalAlign=middle;whiteSpace=wrap;rounded=0;" parent="1" vertex="1">
          <mxGeometry x="700" y="800" width="10" as="geometry" />
        </mxCell>
        <mxCell id="3IenMItIxv0-lteJ33fJ-76" value="" style="ellipse;whiteSpace=wrap;html=1;aspect=fixed;fillColor=none;strokeColor=#000000;" parent="1" vertex="1">
          <mxGeometry x="740" y="840" width="20" height="20" as="geometry" />
        </mxCell>
        <mxCell id="3IenMItIxv0-lteJ33fJ-77" value="" style="endArrow=none;html=1;fontColor=default;labelBackgroundColor=default;strokeColor=#121212;strokeWidth=1;exitX=0;exitY=0.5;exitDx=0;exitDy=0;entryX=1;entryY=0.25;entryDx=0;entryDy=0;" parent="1" source="3IenMItIxv0-lteJ33fJ-76" target="3IenMItIxv0-lteJ33fJ-66" edge="1">
          <mxGeometry width="50" height="50" relative="1" as="geometry">
            <mxPoint x="729.83" y="855" as="sourcePoint" />
            <mxPoint x="729.83" y="835" as="targetPoint" />
            <Array as="points" />
          </mxGeometry>
        </mxCell>
        <mxCell id="3IenMItIxv0-lteJ33fJ-78" value="&lt;font color=&quot;#000000&quot;&gt;Categoria&lt;br&gt;&lt;br&gt;&lt;/font&gt;" style="text;html=1;strokeColor=none;fillColor=none;align=left;verticalAlign=middle;whiteSpace=wrap;rounded=0;" parent="1" vertex="1">
          <mxGeometry x="760" y="850" width="10" as="geometry" />
        </mxCell>
        <mxCell id="3IenMItIxv0-lteJ33fJ-79" value="Clip" style="rounded=0;whiteSpace=wrap;html=1;" parent="1" vertex="1">
          <mxGeometry x="640" y="975" width="80" height="40" as="geometry" />
        </mxCell>
        <mxCell id="3IenMItIxv0-lteJ33fJ-80" value="" style="endArrow=none;html=1;fontColor=default;labelBackgroundColor=default;strokeColor=#121212;strokeWidth=1;" parent="1" edge="1">
          <mxGeometry width="50" height="50" relative="1" as="geometry">
            <mxPoint x="650" y="975" as="sourcePoint" />
            <mxPoint x="650" y="955" as="targetPoint" />
            <Array as="points" />
          </mxGeometry>
        </mxCell>
        <mxCell id="3IenMItIxv0-lteJ33fJ-81" value="" style="endArrow=none;html=1;fontColor=default;labelBackgroundColor=default;strokeColor=#121212;strokeWidth=1;" parent="1" edge="1">
          <mxGeometry width="50" height="50" relative="1" as="geometry">
            <mxPoint x="679.83" y="975" as="sourcePoint" />
            <mxPoint x="679.83" y="955" as="targetPoint" />
            <Array as="points" />
          </mxGeometry>
        </mxCell>
        <mxCell id="3IenMItIxv0-lteJ33fJ-82" value="" style="ellipse;whiteSpace=wrap;html=1;aspect=fixed;fillColor=none;strokeColor=#000000;" parent="1" vertex="1">
          <mxGeometry x="640" y="935" width="20" height="20" as="geometry" />
        </mxCell>
        <mxCell id="3IenMItIxv0-lteJ33fJ-83" value="" style="ellipse;whiteSpace=wrap;html=1;aspect=fixed;fillColor=none;strokeColor=#000000;" parent="1" vertex="1">
          <mxGeometry x="670" y="935" width="20" height="20" as="geometry" />
        </mxCell>
        <mxCell id="3IenMItIxv0-lteJ33fJ-84" value="&lt;font color=&quot;#000000&quot;&gt;Durata&lt;br&gt;&lt;br&gt;&lt;/font&gt;" style="text;html=1;strokeColor=none;fillColor=none;align=left;verticalAlign=middle;whiteSpace=wrap;rounded=0;" parent="1" vertex="1">
          <mxGeometry x="660" y="935" width="30" as="geometry" />
        </mxCell>
        <mxCell id="3IenMItIxv0-lteJ33fJ-85" value="" style="endArrow=none;html=1;fontColor=default;labelBackgroundColor=default;strokeColor=#121212;strokeWidth=1;" parent="1" edge="1">
          <mxGeometry width="50" height="50" relative="1" as="geometry">
            <mxPoint x="710" y="975" as="sourcePoint" />
            <mxPoint x="710" y="955" as="targetPoint" />
            <Array as="points" />
          </mxGeometry>
        </mxCell>
        <mxCell id="3IenMItIxv0-lteJ33fJ-86" value="" style="ellipse;whiteSpace=wrap;html=1;aspect=fixed;fillColor=none;strokeColor=#000000;" parent="1" vertex="1">
          <mxGeometry x="700" y="935" width="20" height="20" as="geometry" />
        </mxCell>
        <mxCell id="3IenMItIxv0-lteJ33fJ-87" value="&lt;font color=&quot;#000000&quot;&gt;Tag&lt;br&gt;&lt;br&gt;&lt;/font&gt;" style="text;html=1;strokeColor=none;fillColor=none;align=left;verticalAlign=middle;whiteSpace=wrap;rounded=0;" parent="1" vertex="1">
          <mxGeometry x="700" y="935" width="10" as="geometry" />
        </mxCell>
        <mxCell id="3IenMItIxv0-lteJ33fJ-88" value="" style="ellipse;whiteSpace=wrap;html=1;aspect=fixed;fillColor=none;strokeColor=#000000;" parent="1" vertex="1">
          <mxGeometry x="740" y="975" width="20" height="20" as="geometry" />
        </mxCell>
        <mxCell id="3IenMItIxv0-lteJ33fJ-89" value="" style="endArrow=none;html=1;fontColor=default;labelBackgroundColor=default;strokeColor=#121212;strokeWidth=1;exitX=0;exitY=0.5;exitDx=0;exitDy=0;entryX=1;entryY=0.25;entryDx=0;entryDy=0;" parent="1" source="3IenMItIxv0-lteJ33fJ-88" target="3IenMItIxv0-lteJ33fJ-79" edge="1">
          <mxGeometry width="50" height="50" relative="1" as="geometry">
            <mxPoint x="729.83" y="990" as="sourcePoint" />
            <mxPoint x="729.83" y="970" as="targetPoint" />
            <Array as="points" />
          </mxGeometry>
        </mxCell>
        <mxCell id="3IenMItIxv0-lteJ33fJ-90" value="&lt;font color=&quot;#000000&quot;&gt;Categoria&lt;br&gt;&lt;br&gt;&lt;/font&gt;" style="text;html=1;strokeColor=none;fillColor=none;align=left;verticalAlign=middle;whiteSpace=wrap;rounded=0;" parent="1" vertex="1">
          <mxGeometry x="760" y="985" width="10" as="geometry" />
        </mxCell>
        <mxCell id="3IenMItIxv0-lteJ33fJ-91" value="&lt;font color=&quot;#121212&quot;&gt;Titolo&lt;/font&gt;&lt;font color=&quot;#000000&quot;&gt;&lt;br&gt;&lt;/font&gt;" style="text;html=1;strokeColor=none;fillColor=none;align=left;verticalAlign=middle;whiteSpace=wrap;rounded=0;" parent="1" vertex="1">
          <mxGeometry x="625" y="915" width="30" height="20" as="geometry" />
        </mxCell>
        <mxCell id="3IenMItIxv0-lteJ33fJ-92" value="" style="rhombus;whiteSpace=wrap;html=1;" parent="1" vertex="1">
          <mxGeometry x="470" y="660" width="80" height="80" as="geometry" />
        </mxCell>
        <mxCell id="3IenMItIxv0-lteJ33fJ-93" value="Donazione" style="text;html=1;strokeColor=none;fillColor=none;align=center;verticalAlign=middle;whiteSpace=wrap;rounded=0;" parent="1" vertex="1">
          <mxGeometry x="480" y="685" width="60" height="30" as="geometry" />
        </mxCell>
        <mxCell id="3IenMItIxv0-lteJ33fJ-96" value="" style="endArrow=none;html=1;fontColor=default;labelBackgroundColor=default;strokeColor=#121212;strokeWidth=1;exitX=1.002;exitY=0.895;exitDx=0;exitDy=0;exitPerimeter=0;" parent="1" source="3IenMItIxv0-lteJ33fJ-93" edge="1">
          <mxGeometry width="50" height="50" relative="1" as="geometry">
            <mxPoint x="540" y="795" as="sourcePoint" />
            <mxPoint x="540" y="730" as="targetPoint" />
            <Array as="points" />
          </mxGeometry>
        </mxCell>
        <mxCell id="3IenMItIxv0-lteJ33fJ-97" value="" style="ellipse;whiteSpace=wrap;html=1;aspect=fixed;fillColor=none;strokeColor=#000000;" parent="1" vertex="1">
          <mxGeometry x="530" y="730" width="20" height="20" as="geometry" />
        </mxCell>
        <mxCell id="3IenMItIxv0-lteJ33fJ-98" value="&lt;font color=&quot;#000000&quot;&gt;N bit&lt;br&gt;&lt;/font&gt;" style="text;html=1;strokeColor=none;fillColor=none;align=left;verticalAlign=middle;whiteSpace=wrap;rounded=0;" parent="1" vertex="1">
          <mxGeometry x="520" y="750" width="60" height="30" as="geometry" />
        </mxCell>
        <mxCell id="3IenMItIxv0-lteJ33fJ-99" value="" style="rhombus;whiteSpace=wrap;html=1;" parent="1" vertex="1">
          <mxGeometry x="900" y="810" width="80" height="80" as="geometry" />
        </mxCell>
        <mxCell id="3IenMItIxv0-lteJ33fJ-100" value="Non&amp;nbsp;&lt;br&gt;iscritto" style="text;html=1;strokeColor=none;fillColor=none;align=center;verticalAlign=middle;whiteSpace=wrap;rounded=0;" parent="1" vertex="1">
          <mxGeometry x="910" y="835" width="60" height="30" as="geometry" />
        </mxCell>
        <mxCell id="3IenMItIxv0-lteJ33fJ-101" value="" style="endArrow=none;html=1;fontColor=default;labelBackgroundColor=default;strokeColor=#121212;strokeWidth=1;exitX=0;exitY=1;exitDx=0;exitDy=0;entryX=1;entryY=0.75;entryDx=0;entryDy=0;" parent="1" source="3IenMItIxv0-lteJ33fJ-99" target="3IenMItIxv0-lteJ33fJ-66" edge="1">
          <mxGeometry width="50" height="50" relative="1" as="geometry">
            <mxPoint x="810" y="874.17" as="sourcePoint" />
            <mxPoint x="720" y="874.17" as="targetPoint" />
            <Array as="points" />
          </mxGeometry>
        </mxCell>
        <mxCell id="3IenMItIxv0-lteJ33fJ-102" value="" style="endArrow=none;html=1;fontColor=default;labelBackgroundColor=default;strokeColor=#121212;strokeWidth=1;entryX=1;entryY=0.75;entryDx=0;entryDy=0;" parent="1" target="3IenMItIxv0-lteJ33fJ-52" edge="1">
          <mxGeometry width="50" height="50" relative="1" as="geometry">
            <mxPoint x="930" y="770" as="sourcePoint" />
            <mxPoint x="720" y="770" as="targetPoint" />
            <Array as="points" />
          </mxGeometry>
        </mxCell>
        <mxCell id="3IenMItIxv0-lteJ33fJ-103" value="" style="endArrow=none;html=1;fontColor=default;labelBackgroundColor=default;strokeColor=#121212;strokeWidth=1;" parent="1" edge="1">
          <mxGeometry width="50" height="50" relative="1" as="geometry">
            <mxPoint x="930" y="1000" as="sourcePoint" />
            <mxPoint x="720" y="1000" as="targetPoint" />
            <Array as="points" />
          </mxGeometry>
        </mxCell>
        <mxCell id="3IenMItIxv0-lteJ33fJ-104" value="" style="endArrow=none;html=1;fontColor=default;labelBackgroundColor=default;strokeColor=#121212;strokeWidth=1;" parent="1" edge="1">
          <mxGeometry width="50" height="50" relative="1" as="geometry">
            <mxPoint x="930" y="820" as="sourcePoint" />
            <mxPoint x="930" y="770" as="targetPoint" />
            <Array as="points" />
          </mxGeometry>
        </mxCell>
        <mxCell id="3IenMItIxv0-lteJ33fJ-105" value="" style="endArrow=none;html=1;fontColor=default;labelBackgroundColor=default;strokeColor=#121212;strokeWidth=1;exitX=0.75;exitY=0;exitDx=0;exitDy=0;entryX=0.377;entryY=0.89;entryDx=0;entryDy=0;entryPerimeter=0;" parent="1" target="3IenMItIxv0-lteJ33fJ-99" edge="1">
          <mxGeometry width="50" height="50" relative="1" as="geometry">
            <mxPoint x="930" y="1000" as="sourcePoint" />
            <mxPoint x="930" y="950" as="targetPoint" />
            <Array as="points" />
          </mxGeometry>
        </mxCell>
        <mxCell id="3IenMItIxv0-lteJ33fJ-106" value="" style="endArrow=none;html=1;fontColor=default;labelBackgroundColor=default;strokeColor=#121212;strokeWidth=1;" parent="1" edge="1">
          <mxGeometry width="50" height="50" relative="1" as="geometry">
            <mxPoint x="1040" y="850" as="sourcePoint" />
            <mxPoint x="980" y="850" as="targetPoint" />
            <Array as="points" />
          </mxGeometry>
        </mxCell>
        <mxCell id="3IenMItIxv0-lteJ33fJ-107" value="Viewer" style="rounded=0;whiteSpace=wrap;html=1;" parent="1" vertex="1">
          <mxGeometry x="1030" y="830" width="80" height="40" as="geometry" />
        </mxCell>
        <mxCell id="3IenMItIxv0-lteJ33fJ-108" value="" style="rhombus;whiteSpace=wrap;html=1;" parent="1" vertex="1">
          <mxGeometry x="1160" y="810" width="80" height="80" as="geometry" />
        </mxCell>
        <mxCell id="3IenMItIxv0-lteJ33fJ-109" value="Supporto" style="text;html=1;strokeColor=none;fillColor=none;align=center;verticalAlign=middle;whiteSpace=wrap;rounded=0;" parent="1" vertex="1">
          <mxGeometry x="1170" y="835" width="60" height="30" as="geometry" />
        </mxCell>
        <mxCell id="3IenMItIxv0-lteJ33fJ-110" value="" style="endArrow=none;html=1;strokeColor=#030303;strokeWidth=1;exitX=0;exitY=0.5;exitDx=0;exitDy=0;" parent="1" source="3IenMItIxv0-lteJ33fJ-108" edge="1">
          <mxGeometry width="50" height="50" relative="1" as="geometry">
            <mxPoint x="1150" y="850" as="sourcePoint" />
            <mxPoint x="1110" y="850" as="targetPoint" />
            <Array as="points" />
          </mxGeometry>
        </mxCell>
        <mxCell id="3IenMItIxv0-lteJ33fJ-111" value="" style="endArrow=none;html=1;strokeColor=#030303;strokeWidth=1;exitX=0;exitY=0.5;exitDx=0;exitDy=0;" parent="1" edge="1">
          <mxGeometry width="50" height="50" relative="1" as="geometry">
            <mxPoint x="1290" y="849.58" as="sourcePoint" />
            <mxPoint x="1240" y="849.58" as="targetPoint" />
            <Array as="points" />
          </mxGeometry>
        </mxCell>
        <mxCell id="3IenMItIxv0-lteJ33fJ-112" value="Iscrizione" style="rounded=0;whiteSpace=wrap;html=1;" parent="1" vertex="1">
          <mxGeometry x="1290" y="825" width="80" height="40" as="geometry" />
        </mxCell>
        <mxCell id="3IenMItIxv0-lteJ33fJ-117" value="" style="endArrow=none;html=1;fontColor=default;labelBackgroundColor=default;strokeColor=#121212;strokeWidth=1;" parent="1" edge="1">
          <mxGeometry width="50" height="50" relative="1" as="geometry">
            <mxPoint x="1300" y="790" as="sourcePoint" />
            <mxPoint x="1300" y="825" as="targetPoint" />
            <Array as="points">
              <mxPoint x="1300" y="800" />
            </Array>
          </mxGeometry>
        </mxCell>
        <mxCell id="3IenMItIxv0-lteJ33fJ-118" value="" style="ellipse;whiteSpace=wrap;html=1;aspect=fixed;" parent="1" vertex="1">
          <mxGeometry x="1290" y="770" width="20" height="20" as="geometry" />
        </mxCell>
        <mxCell id="3IenMItIxv0-lteJ33fJ-119" value="&lt;font color=&quot;#000000&quot;&gt;Indirizzo emal&lt;br&gt;&lt;/font&gt;" style="text;html=1;strokeColor=none;fillColor=none;align=center;verticalAlign=middle;whiteSpace=wrap;rounded=0;" parent="1" vertex="1">
          <mxGeometry x="1270" y="735" width="60" height="30" as="geometry" />
        </mxCell>
        <mxCell id="3IenMItIxv0-lteJ33fJ-120" value="" style="endArrow=none;html=1;fontColor=default;labelBackgroundColor=default;strokeColor=#121212;strokeWidth=1;" parent="1" edge="1">
          <mxGeometry width="50" height="50" relative="1" as="geometry">
            <mxPoint x="1360" y="790" as="sourcePoint" />
            <mxPoint x="1360" y="825" as="targetPoint" />
            <Array as="points" />
          </mxGeometry>
        </mxCell>
        <mxCell id="3IenMItIxv0-lteJ33fJ-121" value="" style="ellipse;whiteSpace=wrap;html=1;aspect=fixed;" parent="1" vertex="1">
          <mxGeometry x="1350" y="770" width="20" height="20" as="geometry" />
        </mxCell>
        <mxCell id="3IenMItIxv0-lteJ33fJ-122" value="&lt;font color=&quot;#000000&quot;&gt;Numero di telefono&lt;br&gt;&lt;/font&gt;" style="text;html=1;strokeColor=none;fillColor=none;align=center;verticalAlign=middle;whiteSpace=wrap;rounded=0;" parent="1" vertex="1">
          <mxGeometry x="1330" y="735" width="60" height="30" as="geometry" />
        </mxCell>
        <mxCell id="3IenMItIxv0-lteJ33fJ-123" value="Utente anonimo" style="rounded=0;whiteSpace=wrap;html=1;" parent="1" vertex="1">
          <mxGeometry x="470" y="330" width="120" height="60" as="geometry" />
        </mxCell>
        <mxCell id="3IenMItIxv0-lteJ33fJ-125" value="Utente registrato" style="rounded=0;whiteSpace=wrap;html=1;" parent="1" vertex="1">
          <mxGeometry x="310" y="330" width="120" height="60" as="geometry" />
        </mxCell>
        <mxCell id="3IenMItIxv0-lteJ33fJ-126" value="" style="shape=flexArrow;endArrow=classic;html=1;width=23.529411764705884;endSize=7.317647058823529;fillColor=#000000;strokeColor=#000000;entryX=0.583;entryY=1;entryDx=0;entryDy=0;entryPerimeter=0;" parent="1" edge="1">
          <mxGeometry width="50" height="50" relative="1" as="geometry">
            <mxPoint x="330.03999999999996" y="440" as="sourcePoint" />
            <mxPoint x="330" y="390" as="targetPoint" />
            <Array as="points">
              <mxPoint x="330.03999999999996" y="410" />
            </Array>
          </mxGeometry>
        </mxCell>
        <mxCell id="3IenMItIxv0-lteJ33fJ-129" value="" style="rhombus;whiteSpace=wrap;html=1;" parent="1" vertex="1">
          <mxGeometry x="340" y="600" width="80" height="80" as="geometry" />
        </mxCell>
        <mxCell id="3IenMItIxv0-lteJ33fJ-130" value="Visita" style="text;html=1;strokeColor=none;fillColor=none;align=center;verticalAlign=middle;whiteSpace=wrap;rounded=0;" parent="1" vertex="1">
          <mxGeometry x="350" y="625" width="60" height="30" as="geometry" />
        </mxCell>
        <mxCell id="3IenMItIxv0-lteJ33fJ-139" value="(1,1)" style="text;html=1;strokeColor=none;fillColor=none;align=center;verticalAlign=middle;whiteSpace=wrap;rounded=0;" parent="1" vertex="1">
          <mxGeometry x="540" y="620" width="60" height="30" as="geometry" />
        </mxCell>
        <mxCell id="3IenMItIxv0-lteJ33fJ-140" value="(1,1)" style="text;html=1;strokeColor=none;fillColor=none;align=center;verticalAlign=middle;whiteSpace=wrap;rounded=0;" parent="1" vertex="1">
          <mxGeometry x="330" y="700" width="60" height="30" as="geometry" />
        </mxCell>
        <mxCell id="3IenMItIxv0-lteJ33fJ-141" value="(1,1)" style="text;html=1;strokeColor=none;fillColor=none;align=center;verticalAlign=middle;whiteSpace=wrap;rounded=0;" parent="1" vertex="1">
          <mxGeometry x="310" y="795" width="60" height="30" as="geometry" />
        </mxCell>
        <mxCell id="3IenMItIxv0-lteJ33fJ-143" value="(N,N)" style="text;html=1;strokeColor=none;fillColor=none;align=center;verticalAlign=middle;whiteSpace=wrap;rounded=0;" parent="1" vertex="1">
          <mxGeometry x="90" y="805" width="60" height="30" as="geometry" />
        </mxCell>
        <mxCell id="3IenMItIxv0-lteJ33fJ-144" value="(N,N)" style="text;html=1;strokeColor=none;fillColor=none;align=center;verticalAlign=middle;whiteSpace=wrap;rounded=0;" parent="1" vertex="1">
          <mxGeometry x="210" y="825" width="60" height="30" as="geometry" />
        </mxCell>
        <mxCell id="3IenMItIxv0-lteJ33fJ-145" value="(1,N)" style="text;html=1;strokeColor=none;fillColor=none;align=center;verticalAlign=middle;whiteSpace=wrap;rounded=0;" parent="1" vertex="1">
          <mxGeometry x="510" y="810" width="60" height="30" as="geometry" />
        </mxCell>
        <mxCell id="3IenMItIxv0-lteJ33fJ-147" value="(1,N)" style="text;html=1;strokeColor=none;fillColor=none;align=center;verticalAlign=middle;whiteSpace=wrap;rounded=0;" parent="1" vertex="1">
          <mxGeometry x="580" y="725" width="60" height="30" as="geometry" />
        </mxCell>
        <mxCell id="3IenMItIxv0-lteJ33fJ-148" value="(1,N)" style="text;html=1;strokeColor=none;fillColor=none;align=center;verticalAlign=middle;whiteSpace=wrap;rounded=0;" parent="1" vertex="1">
          <mxGeometry x="590" y="835" width="60" height="30" as="geometry" />
        </mxCell>
        <mxCell id="3IenMItIxv0-lteJ33fJ-149" value="(1,N)" style="text;html=1;strokeColor=none;fillColor=none;align=center;verticalAlign=middle;whiteSpace=wrap;rounded=0;" parent="1" vertex="1">
          <mxGeometry x="595" y="975" width="60" height="30" as="geometry" />
        </mxCell>
        <mxCell id="aLuPOI9P567OgMAXJeuT-4" value="" style="rhombus;whiteSpace=wrap;html=1;" vertex="1" parent="1">
          <mxGeometry x="660" y="320" width="100" height="90" as="geometry" />
        </mxCell>
        <mxCell id="aLuPOI9P567OgMAXJeuT-6" value="" style="shape=flexArrow;endArrow=classic;html=1;width=23.529411764705884;endSize=7.317647058823529;fillColor=#000000;strokeColor=#000000;" edge="1" parent="1">
          <mxGeometry width="50" height="50" relative="1" as="geometry">
            <mxPoint x="539" y="435" as="sourcePoint" />
            <mxPoint x="539" y="390" as="targetPoint" />
            <Array as="points">
              <mxPoint x="539" y="405" />
            </Array>
          </mxGeometry>
        </mxCell>
        <mxCell id="aLuPOI9P567OgMAXJeuT-8" value="" style="endArrow=none;html=1;rounded=0;" edge="1" parent="1">
          <mxGeometry relative="1" as="geometry">
            <mxPoint x="710" y="319" as="sourcePoint" />
            <mxPoint x="710" y="180" as="targetPoint" />
            <Array as="points">
              <mxPoint x="710" y="250" />
            </Array>
          </mxGeometry>
        </mxCell>
        <mxCell id="aLuPOI9P567OgMAXJeuT-9" value="" style="endArrow=none;html=1;rounded=0;" edge="1" parent="1">
          <mxGeometry relative="1" as="geometry">
            <mxPoint x="550" y="180" as="sourcePoint" />
            <mxPoint x="710" y="180" as="targetPoint" />
            <Array as="points">
              <mxPoint x="630" y="180" />
            </Array>
          </mxGeometry>
        </mxCell>
        <mxCell id="aLuPOI9P567OgMAXJeuT-10" value="" style="endArrow=none;html=1;rounded=0;" edge="1" parent="1">
          <mxGeometry relative="1" as="geometry">
            <mxPoint x="400" y="180" as="sourcePoint" />
            <mxPoint x="560" y="180" as="targetPoint" />
            <Array as="points" />
          </mxGeometry>
        </mxCell>
        <mxCell id="aLuPOI9P567OgMAXJeuT-11" value="" style="endArrow=none;html=1;rounded=0;" edge="1" parent="1">
          <mxGeometry relative="1" as="geometry">
            <mxPoint x="310" y="180" as="sourcePoint" />
            <mxPoint x="400" y="180" as="targetPoint" />
            <Array as="points">
              <mxPoint x="320" y="180" />
            </Array>
          </mxGeometry>
        </mxCell>
        <mxCell id="aLuPOI9P567OgMAXJeuT-12" value="" style="endArrow=none;html=1;rounded=0;exitX=0.092;exitY=-0.067;exitDx=0;exitDy=0;exitPerimeter=0;" edge="1" parent="1">
          <mxGeometry relative="1" as="geometry">
            <mxPoint x="311.03999999999996" y="325.98" as="sourcePoint" />
            <mxPoint x="310" y="180" as="targetPoint" />
            <Array as="points">
              <mxPoint x="310" y="220" />
            </Array>
          </mxGeometry>
        </mxCell>
        <mxCell id="aLuPOI9P567OgMAXJeuT-13" value="" style="endArrow=none;html=1;rounded=0;" edge="1" parent="1">
          <mxGeometry relative="1" as="geometry">
            <mxPoint x="610" y="462" as="sourcePoint" />
            <mxPoint x="710" y="462" as="targetPoint" />
            <Array as="points">
              <mxPoint x="690" y="462" />
            </Array>
          </mxGeometry>
        </mxCell>
        <mxCell id="aLuPOI9P567OgMAXJeuT-14" value="" style="endArrow=none;html=1;rounded=0;" edge="1" parent="1">
          <mxGeometry relative="1" as="geometry">
            <mxPoint x="710" y="410" as="sourcePoint" />
            <mxPoint x="710" y="460" as="targetPoint" />
            <Array as="points">
              <mxPoint x="710" y="410" />
            </Array>
          </mxGeometry>
        </mxCell>
        <mxCell id="aLuPOI9P567OgMAXJeuT-16" value="S-R" style="text;strokeColor=none;fillColor=none;spacingLeft=4;spacingRight=4;overflow=hidden;rotatable=0;points=[[0,0.5],[1,0.5]];portConstraint=eastwest;fontSize=12;whiteSpace=wrap;html=1;" vertex="1" parent="1">
          <mxGeometry x="690" y="350" width="40" height="30" as="geometry" />
        </mxCell>
        <mxCell id="aLuPOI9P567OgMAXJeuT-17" value="" style="endArrow=none;html=1;fontColor=default;labelBackgroundColor=default;strokeColor=#121212;strokeWidth=1;" edge="1" parent="1">
          <mxGeometry width="50" height="50" relative="1" as="geometry">
            <mxPoint x="765" y="365" as="sourcePoint" />
            <mxPoint x="815" y="355" as="targetPoint" />
            <Array as="points">
              <mxPoint x="785" y="355" />
            </Array>
          </mxGeometry>
        </mxCell>
        <mxCell id="aLuPOI9P567OgMAXJeuT-18" value="Indirizzo&lt;br&gt;mail" style="text;strokeColor=none;fillColor=none;spacingLeft=4;spacingRight=4;overflow=hidden;rotatable=0;points=[[0,0.5],[1,0.5]];portConstraint=eastwest;fontSize=12;whiteSpace=wrap;html=1;" vertex="1" parent="1">
          <mxGeometry x="800" y="310" width="70" height="30" as="geometry" />
        </mxCell>
        <mxCell id="aLuPOI9P567OgMAXJeuT-24" value="" style="endArrow=none;html=1;rounded=0;" edge="1" parent="1">
          <mxGeometry relative="1" as="geometry">
            <mxPoint x="240" y="500" as="sourcePoint" />
            <mxPoint x="238" y="610" as="targetPoint" />
          </mxGeometry>
        </mxCell>
        <mxCell id="aLuPOI9P567OgMAXJeuT-25" value="Possiede" style="shape=rhombus;perimeter=rhombusPerimeter;whiteSpace=wrap;html=1;align=center;" vertex="1" parent="1">
          <mxGeometry x="190" y="610" width="120" height="60" as="geometry" />
        </mxCell>
        <mxCell id="aLuPOI9P567OgMAXJeuT-26" value="SOCIAL" style="whiteSpace=wrap;html=1;align=center;" vertex="1" parent="1">
          <mxGeometry x="40" y="610" width="100" height="40" as="geometry" />
        </mxCell>
        <mxCell id="aLuPOI9P567OgMAXJeuT-27" value="" style="endArrow=none;html=1;strokeColor=#080808;strokeWidth=1;entryX=0.5;entryY=1;entryDx=0;entryDy=0;exitX=0;exitY=0;exitDx=0;exitDy=0;" edge="1" parent="1" target="3IenMItIxv0-lteJ33fJ-129">
          <mxGeometry width="50" height="50" relative="1" as="geometry">
            <mxPoint x="380" y="840" as="sourcePoint" />
            <mxPoint x="364" y="690" as="targetPoint" />
            <Array as="points" />
          </mxGeometry>
        </mxCell>
        <mxCell id="aLuPOI9P567OgMAXJeuT-29" value="" style="endArrow=none;html=1;strokeColor=#080808;strokeWidth=1;exitX=0;exitY=0;exitDx=0;exitDy=0;entryX=0.36;entryY=1.018;entryDx=0;entryDy=0;entryPerimeter=0;" edge="1" parent="1" target="3IenMItIxv0-lteJ33fJ-5">
          <mxGeometry width="50" height="50" relative="1" as="geometry">
            <mxPoint x="376.5" y="603" as="sourcePoint" />
            <mxPoint x="363.5" y="498" as="targetPoint" />
            <Array as="points" />
          </mxGeometry>
        </mxCell>
      </root>
    </mxGraphModel>
  </diagram>
</mxfile>
